<svg width="16" height="12" viewBox="0 0 16 12" fill="none" xmlns="http://www.w3.org/2000/svg">
<path d="M7.647 3.854C7.69345 3.90056 7.74862 3.93751 7.80937 3.96271C7.87011 3.98792 7.93523 4.00089 8.001 4.00089C8.06677 4.00089 8.13189 3.98792 8.19263 3.96271C8.25338 3.93751 8.30855 3.90056 8.355 3.854L9.855 2.354C9.90149 2.30751 9.93836 2.25232 9.96352 2.19158C9.98868 2.13084 10.0016 2.06574 10.0016 2C10.0016 1.93426 9.98868 1.86916 9.96352 1.80842C9.93836 1.74768 9.90149 1.69249 9.855 1.646C9.80851 1.59951 9.75332 1.56264 9.69258 1.53748C9.63184 1.51232 9.56674 1.49937 9.501 1.49937C9.43526 1.49937 9.37016 1.51232 9.30942 1.53748C9.24868 1.56264 9.19349 1.59951 9.147 1.646L8.501 2.293V0.5C8.501 0.367392 8.44832 0.240215 8.35455 0.146447C8.26079 0.0526784 8.13361 0 8.001 0C7.86839 0 7.74121 0.0526784 7.64745 0.146447C7.55368 0.240215 7.501 0.367392 7.501 0.5V2.293L6.855 1.646C6.80851 1.59951 6.75332 1.56264 6.69258 1.53748C6.63184 1.51232 6.56674 1.49937 6.501 1.49937C6.43526 1.49937 6.37016 1.51232 6.30942 1.53748C6.24868 1.56264 6.19349 1.59951 6.147 1.646C6.10051 1.69249 6.06364 1.74768 6.03848 1.80842C6.01332 1.86916 6.00037 1.93426 6.00037 2C6.00037 2.06574 6.01332 2.13084 6.03848 2.19158C6.06364 2.25232 6.10051 2.30751 6.147 2.354L7.647 3.854V3.854ZM2.344 3.344C2.43776 3.25026 2.56492 3.19761 2.6975 3.19761C2.83008 3.19761 2.95724 3.25026 3.051 3.344L4.465 4.757C4.55608 4.8513 4.60648 4.9776 4.60534 5.1087C4.6042 5.2398 4.55161 5.36521 4.45891 5.45791C4.3662 5.55061 4.2408 5.6032 4.1097 5.60434C3.9786 5.60548 3.8523 5.55508 3.758 5.464L2.344 4.05C2.25026 3.95624 2.19761 3.82908 2.19761 3.6965C2.19761 3.56392 2.25026 3.43676 2.344 3.343V3.344ZM13.658 3.344C13.7514 3.43772 13.8039 3.56466 13.8039 3.697C13.8039 3.82934 13.7514 3.95628 13.658 4.05L12.244 5.464C12.1979 5.51176 12.1427 5.54985 12.0817 5.57605C12.0207 5.60226 11.9551 5.61605 11.8887 5.61663C11.8223 5.6172 11.7565 5.60455 11.695 5.57941C11.6336 5.55427 11.5777 5.51714 11.5308 5.4702C11.4839 5.42325 11.4467 5.36743 11.4216 5.30598C11.3964 5.24453 11.3838 5.17869 11.3844 5.1123C11.385 5.04591 11.3987 4.9803 11.4249 4.9193C11.4512 4.8583 11.4892 4.80312 11.537 4.757L12.951 3.343C13.0448 3.24926 13.1719 3.19661 13.3045 3.19661C13.4371 3.19661 13.5642 3.24926 13.658 3.343V3.344ZM8.001 6C8.52769 5.99984 9.04514 6.13834 9.50132 6.40158C9.95751 6.66482 10.3364 7.04351 10.5998 7.4996C10.8632 7.95568 11.0019 8.47308 11.0019 8.99977C11.002 9.52646 10.8633 10.0439 10.6 10.5H5.401C5.13761 10.0438 4.99899 9.52629 4.99908 8.99952C4.99916 8.47275 5.13795 7.95528 5.40148 7.49917C5.66501 7.04305 6.044 6.66437 6.50033 6.4012C6.95665 6.13804 7.47423 5.99966 8.001 6V6ZM11.711 10.5C11.9562 9.89284 12.0486 9.23478 11.98 8.58359C11.9115 7.93239 11.6842 7.30798 11.318 6.76516C10.9518 6.22235 10.4579 5.77774 9.87973 5.47036C9.30157 5.16298 8.65679 5.00223 8.002 5.00223C7.34721 5.00223 6.70243 5.16298 6.12427 5.47036C5.54611 5.77774 5.05225 6.22235 4.68605 6.76516C4.31984 7.30798 4.0925 7.93239 4.02397 8.58359C3.95544 9.23478 4.04782 9.89284 4.293 10.5H0.5C0.367392 10.5 0.240215 10.5527 0.146447 10.6464C0.0526784 10.7402 0 10.8674 0 11C0 11.1326 0.0526784 11.2598 0.146447 11.3536C0.240215 11.4473 0.367392 11.5 0.5 11.5H15.5C15.6326 11.5 15.7598 11.4473 15.8536 11.3536C15.9473 11.2598 16 11.1326 16 11C16 10.8674 15.9473 10.7402 15.8536 10.6464C15.7598 10.5527 15.6326 10.5 15.5 10.5H11.71H11.711ZM0.001 9C0.001 8.86739 0.0536784 8.74021 0.147447 8.64645C0.241215 8.55268 0.368392 8.5 0.501 8.5H2.501C2.63361 8.5 2.76079 8.55268 2.85455 8.64645C2.94832 8.74021 3.001 8.86739 3.001 9C3.001 9.13261 2.94832 9.25979 2.85455 9.35355C2.76079 9.44732 2.63361 9.5 2.501 9.5H0.501C0.368392 9.5 0.241215 9.44732 0.147447 9.35355C0.0536784 9.25979 0.001 9.13261 0.001 9ZM13.001 9C13.001 8.86739 13.0537 8.74021 13.1474 8.64645C13.2412 8.55268 13.3684 8.5 13.501 8.5H15.501C15.6336 8.5 15.7608 8.55268 15.8546 8.64645C15.9483 8.74021 16.001 8.86739 16.001 9C16.001 9.13261 15.9483 9.25979 15.8546 9.35355C15.7608 9.44732 15.6336 9.5 15.501 9.5H13.501C13.3684 9.5 13.2412 9.44732 13.1474 9.35355C13.0537 9.25979 13.001 9.13261 13.001 9Z" fill="black"/>
</svg>
