<svg width="15" height="22" viewBox="0 0 15 22" fill="none" xmlns="http://www.w3.org/2000/svg">
<path d="M4.00125 14.28V4.5C4.00125 4.23478 3.89589 3.98043 3.70835 3.79289C3.52082 3.60536 3.26646 3.5 3.00125 3.5C2.73603 3.5 2.48168 3.60536 2.29414 3.79289C2.10661 3.98043 2.00125 4.23478 2.00125 4.5V14.28C1.69897 14.4545 1.44763 14.7051 1.2722 15.0068C1.09677 15.3086 1.00336 15.651 1.00125 16C1.00125 16.5304 1.21196 17.0391 1.58704 17.4142C1.96211 17.7893 2.47082 18 3.00125 18C3.53168 18 4.04039 17.7893 4.41546 17.4142C4.79053 17.0391 5.00125 16.5304 5.00125 16C4.99914 15.651 4.90573 15.3086 4.7303 15.0068C4.55487 14.7051 4.30352 14.4545 4.00125 14.28ZM13.0012 1.5H12.5012V1C12.5012 0.734784 12.3959 0.48043 12.2084 0.292893C12.0208 0.105357 11.7665 0 11.5012 0C11.236 0 10.9817 0.105357 10.7941 0.292893C10.6066 0.48043 10.5012 0.734784 10.5012 1V1.5H10.0012C9.73603 1.5 9.48168 1.60536 9.29414 1.79289C9.10661 1.98043 9.00125 2.23478 9.00125 2.5C9.00125 2.76522 9.10661 3.01957 9.29414 3.20711C9.48168 3.39464 9.73603 3.5 10.0012 3.5H10.5012V4C10.5012 4.26522 10.6066 4.51957 10.7941 4.70711C10.9817 4.89464 11.236 5 11.5012 5C11.7665 5 12.0208 4.89464 12.2084 4.70711C12.3959 4.51957 12.5012 4.26522 12.5012 4V3.5H13.0012C13.2665 3.5 13.5208 3.39464 13.7084 3.20711C13.8959 3.01957 14.0012 2.76522 14.0012 2.5C14.0012 2.23478 13.8959 1.98043 13.7084 1.79289C13.5208 1.60536 13.2665 1.5 13.0012 1.5V1.5ZM7.50125 4.5C7.50125 3.30653 7.02714 2.16193 6.18323 1.31802C5.33931 0.474106 4.19472 1.19209e-07 3.00125 1.19209e-07C1.80777 1.19209e-07 0.663181 0.474106 -0.180732 1.31802C-1.02465 2.16193 -1.49875 3.30653 -1.49875 4.5V12C-2.18991 12.7832 -2.66462 13.7333 -2.87594 14.7562C-3.08726 15.7792 -3.02785 16.8396 -2.7036 17.8326C-2.37935 18.8255 -1.80148 19.7166 -1.02717 20.4177C-0.252862 21.1188 0.69107 21.6056 1.71125 21.83C2.13177 21.926 2.56026 21.9829 2.99125 22C4.15272 22.0074 5.29137 21.6774 6.26899 21.0503C7.24661 20.4231 8.02118 19.5257 8.4987 18.4669C8.97622 17.4081 9.13615 16.2334 8.9591 15.0855C8.78204 13.9376 8.2756 12.8657 7.50125 12V4.5ZM5.50125 19.11C4.97455 19.5382 4.34753 19.8254 3.67922 19.9444C3.01092 20.0634 2.32332 20.0104 1.68115 19.7904C1.03899 19.5703 0.463391 19.1905 0.00855184 18.6865C-0.446287 18.1826 -0.765403 17.5713 -0.918752 16.91C-1.07325 16.2415 -1.05321 15.5446 -0.860574 14.8861C-0.667935 14.2276 -0.309167 13.6298 0.181248 13.15C0.275736 13.0574 0.350907 12.9469 0.402403 12.8251C0.4539 12.7032 0.480699 12.5723 0.481248 12.44V4.5C0.481248 3.83696 0.74464 3.20107 1.21348 2.73223C1.68232 2.26339 2.31821 2 2.98125 2C3.64429 2 4.28017 2.26339 4.74901 2.73223C5.21786 3.20107 5.48125 3.83696 5.48125 4.5V12.44C5.4818 12.5723 5.5086 12.7032 5.56009 12.8251C5.61159 12.9469 5.68676 13.0574 5.78125 13.15C6.19 13.5449 6.50991 14.0223 6.71967 14.5505C6.92943 15.0787 7.02422 15.6456 6.99773 16.2133C6.97123 16.781 6.82406 17.3366 6.56602 17.843C6.30798 18.3493 5.945 18.7949 5.50125 19.15V19.11Z" fill="black"/>
</svg>
